<mxfile host="app.diagrams.net" modified="2021-01-13T06:22:55.895Z" agent="5.0 (Macintosh; Intel Mac OS X 10_13_6) AppleWebKit/537.36 (KHTML, like Gecko) Chrome/87.0.4280.141 Safari/537.36" etag="hJT20DcRgBIpLqFwItqz" version="14.1.9" type="github">
  <diagram id="omeztYYmMXc4XR9Rx56C" name="Page-1">
    <mxGraphModel dx="928" dy="519" grid="1" gridSize="10" guides="1" tooltips="1" connect="1" arrows="1" fold="1" page="1" pageScale="1" pageWidth="827" pageHeight="1169" math="0" shadow="0">
      <root>
        <mxCell id="0" />
        <mxCell id="1" parent="0" />
        <mxCell id="4AXN36IFr81p3jPmK6cU-1" value="原基层党组织" style="shape=umlActor;verticalLabelPosition=bottom;verticalAlign=top;html=1;outlineConnect=0;" vertex="1" parent="1">
          <mxGeometry x="90" y="120" width="30" height="60" as="geometry" />
        </mxCell>
        <mxCell id="4AXN36IFr81p3jPmK6cU-2" value="目的基层党组织" style="shape=umlActor;verticalLabelPosition=bottom;verticalAlign=top;html=1;outlineConnect=0;" vertex="1" parent="1">
          <mxGeometry x="90" y="350" width="30" height="60" as="geometry" />
        </mxCell>
        <mxCell id="4AXN36IFr81p3jPmK6cU-5" value="发起纸质介绍信" style="rounded=0;whiteSpace=wrap;html=1;" vertex="1" parent="1">
          <mxGeometry x="200" y="100" width="100" height="40" as="geometry" />
        </mxCell>
        <mxCell id="4AXN36IFr81p3jPmK6cU-6" value="打印介绍信" style="rounded=0;whiteSpace=wrap;html=1;" vertex="1" parent="1">
          <mxGeometry x="200" y="170" width="100" height="40" as="geometry" />
        </mxCell>
        <mxCell id="4AXN36IFr81p3jPmK6cU-8" value="线下转接" style="ellipse;whiteSpace=wrap;html=1;" vertex="1" parent="1">
          <mxGeometry x="200" y="260" width="100" height="50" as="geometry" />
        </mxCell>
        <mxCell id="4AXN36IFr81p3jPmK6cU-9" value="接收纸质介绍信" style="rounded=0;whiteSpace=wrap;html=1;" vertex="1" parent="1">
          <mxGeometry x="200" y="370" width="100" height="40" as="geometry" />
        </mxCell>
        <mxCell id="4AXN36IFr81p3jPmK6cU-10" value="" style="ellipse;html=1;shape=endState;fillColor=#000000;strokeColor=#ff0000;" vertex="1" parent="1">
          <mxGeometry x="235" y="470" width="30" height="30" as="geometry" />
        </mxCell>
        <mxCell id="4AXN36IFr81p3jPmK6cU-11" value="" style="ellipse;html=1;shape=startState;fillColor=#000000;strokeColor=#ff0000;" vertex="1" parent="1">
          <mxGeometry x="235" y="30" width="30" height="30" as="geometry" />
        </mxCell>
        <mxCell id="4AXN36IFr81p3jPmK6cU-12" value="" style="edgeStyle=orthogonalEdgeStyle;html=1;verticalAlign=bottom;endArrow=open;endSize=8;strokeColor=#ff0000;entryX=0.5;entryY=0;entryDx=0;entryDy=0;" edge="1" source="4AXN36IFr81p3jPmK6cU-11" parent="1" target="4AXN36IFr81p3jPmK6cU-5">
          <mxGeometry relative="1" as="geometry">
            <mxPoint x="405" y="360" as="targetPoint" />
          </mxGeometry>
        </mxCell>
        <mxCell id="4AXN36IFr81p3jPmK6cU-13" value="" style="endArrow=classic;html=1;exitX=0.5;exitY=1;exitDx=0;exitDy=0;" edge="1" parent="1" source="4AXN36IFr81p3jPmK6cU-5" target="4AXN36IFr81p3jPmK6cU-6">
          <mxGeometry width="50" height="50" relative="1" as="geometry">
            <mxPoint x="380" y="260" as="sourcePoint" />
            <mxPoint x="430" y="210" as="targetPoint" />
          </mxGeometry>
        </mxCell>
        <mxCell id="4AXN36IFr81p3jPmK6cU-14" value="" style="endArrow=classic;html=1;exitX=0.5;exitY=1;exitDx=0;exitDy=0;entryX=0.5;entryY=0;entryDx=0;entryDy=0;" edge="1" parent="1" source="4AXN36IFr81p3jPmK6cU-6" target="4AXN36IFr81p3jPmK6cU-8">
          <mxGeometry width="50" height="50" relative="1" as="geometry">
            <mxPoint x="380" y="260" as="sourcePoint" />
            <mxPoint x="430" y="210" as="targetPoint" />
          </mxGeometry>
        </mxCell>
        <mxCell id="4AXN36IFr81p3jPmK6cU-15" value="" style="endArrow=classic;html=1;exitX=0.5;exitY=1;exitDx=0;exitDy=0;" edge="1" parent="1" source="4AXN36IFr81p3jPmK6cU-8" target="4AXN36IFr81p3jPmK6cU-9">
          <mxGeometry width="50" height="50" relative="1" as="geometry">
            <mxPoint x="380" y="260" as="sourcePoint" />
            <mxPoint x="430" y="210" as="targetPoint" />
          </mxGeometry>
        </mxCell>
        <mxCell id="4AXN36IFr81p3jPmK6cU-16" value="" style="endArrow=classic;html=1;exitX=0.5;exitY=1;exitDx=0;exitDy=0;entryX=0.5;entryY=0;entryDx=0;entryDy=0;" edge="1" parent="1" source="4AXN36IFr81p3jPmK6cU-9" target="4AXN36IFr81p3jPmK6cU-10">
          <mxGeometry width="50" height="50" relative="1" as="geometry">
            <mxPoint x="380" y="320" as="sourcePoint" />
            <mxPoint x="430" y="270" as="targetPoint" />
          </mxGeometry>
        </mxCell>
        <mxCell id="4AXN36IFr81p3jPmK6cU-17" value="发起纸质介绍信" style="rounded=0;whiteSpace=wrap;html=1;" vertex="1" parent="1">
          <mxGeometry x="500" y="100" width="100" height="40" as="geometry" />
        </mxCell>
        <mxCell id="4AXN36IFr81p3jPmK6cU-18" value="打印介绍信" style="rounded=0;whiteSpace=wrap;html=1;" vertex="1" parent="1">
          <mxGeometry x="500" y="170" width="100" height="40" as="geometry" />
        </mxCell>
        <mxCell id="4AXN36IFr81p3jPmK6cU-19" value="线下转接" style="ellipse;whiteSpace=wrap;html=1;" vertex="1" parent="1">
          <mxGeometry x="500" y="250" width="100" height="50" as="geometry" />
        </mxCell>
        <mxCell id="4AXN36IFr81p3jPmK6cU-20" value="" style="edgeStyle=orthogonalEdgeStyle;html=1;verticalAlign=bottom;endArrow=open;endSize=8;strokeColor=#ff0000;entryX=0.5;entryY=0;entryDx=0;entryDy=0;" edge="1" parent="1" target="4AXN36IFr81p3jPmK6cU-17">
          <mxGeometry relative="1" as="geometry">
            <mxPoint x="705" y="360" as="targetPoint" />
            <mxPoint x="550" y="50" as="sourcePoint" />
          </mxGeometry>
        </mxCell>
        <mxCell id="4AXN36IFr81p3jPmK6cU-21" value="" style="endArrow=classic;html=1;exitX=0.5;exitY=1;exitDx=0;exitDy=0;" edge="1" parent="1" source="4AXN36IFr81p3jPmK6cU-17" target="4AXN36IFr81p3jPmK6cU-18">
          <mxGeometry width="50" height="50" relative="1" as="geometry">
            <mxPoint x="680" y="260" as="sourcePoint" />
            <mxPoint x="730" y="210" as="targetPoint" />
          </mxGeometry>
        </mxCell>
        <mxCell id="4AXN36IFr81p3jPmK6cU-22" value="" style="endArrow=classic;html=1;exitX=0.5;exitY=1;exitDx=0;exitDy=0;entryX=0.5;entryY=0;entryDx=0;entryDy=0;" edge="1" parent="1" source="4AXN36IFr81p3jPmK6cU-18" target="4AXN36IFr81p3jPmK6cU-19">
          <mxGeometry width="50" height="50" relative="1" as="geometry">
            <mxPoint x="680" y="260" as="sourcePoint" />
            <mxPoint x="730" y="210" as="targetPoint" />
          </mxGeometry>
        </mxCell>
        <mxCell id="4AXN36IFr81p3jPmK6cU-23" value="" style="ellipse;html=1;shape=startState;fillColor=#000000;strokeColor=#ff0000;" vertex="1" parent="1">
          <mxGeometry x="535" y="30" width="30" height="30" as="geometry" />
        </mxCell>
        <mxCell id="4AXN36IFr81p3jPmK6cU-24" value="原基层党组织" style="shape=umlActor;verticalLabelPosition=bottom;verticalAlign=top;html=1;outlineConnect=0;" vertex="1" parent="1">
          <mxGeometry x="414" y="120" width="30" height="60" as="geometry" />
        </mxCell>
        <mxCell id="4AXN36IFr81p3jPmK6cU-25" value="录入回执信息" style="rounded=0;whiteSpace=wrap;html=1;" vertex="1" parent="1">
          <mxGeometry x="500" y="410" width="100" height="40" as="geometry" />
        </mxCell>
        <mxCell id="4AXN36IFr81p3jPmK6cU-26" value="" style="ellipse;html=1;shape=endState;fillColor=#000000;strokeColor=#ff0000;" vertex="1" parent="1">
          <mxGeometry x="535" y="510" width="30" height="30" as="geometry" />
        </mxCell>
        <mxCell id="4AXN36IFr81p3jPmK6cU-27" value="" style="endArrow=classic;html=1;exitX=0.5;exitY=1;exitDx=0;exitDy=0;entryX=0.5;entryY=0;entryDx=0;entryDy=0;" edge="1" parent="1" source="4AXN36IFr81p3jPmK6cU-25" target="4AXN36IFr81p3jPmK6cU-26">
          <mxGeometry width="50" height="50" relative="1" as="geometry">
            <mxPoint x="680" y="360" as="sourcePoint" />
            <mxPoint x="730" y="310" as="targetPoint" />
          </mxGeometry>
        </mxCell>
        <mxCell id="4AXN36IFr81p3jPmK6cU-29" value="原基层党委" style="shape=umlActor;verticalLabelPosition=bottom;verticalAlign=top;html=1;outlineConnect=0;" vertex="1" parent="1">
          <mxGeometry x="414" y="360" width="30" height="60" as="geometry" />
        </mxCell>
        <mxCell id="4AXN36IFr81p3jPmK6cU-30" value="收到回执" style="ellipse;whiteSpace=wrap;html=1;" vertex="1" parent="1">
          <mxGeometry x="500" y="330" width="100" height="50" as="geometry" />
        </mxCell>
        <mxCell id="4AXN36IFr81p3jPmK6cU-33" value="" style="endArrow=classic;html=1;exitX=0.5;exitY=1;exitDx=0;exitDy=0;entryX=0.5;entryY=0;entryDx=0;entryDy=0;" edge="1" parent="1" source="4AXN36IFr81p3jPmK6cU-19" target="4AXN36IFr81p3jPmK6cU-30">
          <mxGeometry width="50" height="50" relative="1" as="geometry">
            <mxPoint x="260" y="220" as="sourcePoint" />
            <mxPoint x="260" y="270" as="targetPoint" />
          </mxGeometry>
        </mxCell>
        <mxCell id="4AXN36IFr81p3jPmK6cU-34" value="" style="endArrow=classic;html=1;entryX=0.5;entryY=0;entryDx=0;entryDy=0;" edge="1" parent="1" target="4AXN36IFr81p3jPmK6cU-25">
          <mxGeometry width="50" height="50" relative="1" as="geometry">
            <mxPoint x="550" y="380" as="sourcePoint" />
            <mxPoint x="560" y="260" as="targetPoint" />
          </mxGeometry>
        </mxCell>
        <mxCell id="4AXN36IFr81p3jPmK6cU-35" value="" style="endArrow=none;html=1;entryX=0;entryY=0.5;entryDx=0;entryDy=0;" edge="1" parent="1" target="4AXN36IFr81p3jPmK6cU-17">
          <mxGeometry width="50" height="50" relative="1" as="geometry">
            <mxPoint x="450" y="150" as="sourcePoint" />
            <mxPoint x="430" y="270" as="targetPoint" />
          </mxGeometry>
        </mxCell>
        <mxCell id="4AXN36IFr81p3jPmK6cU-36" value="" style="endArrow=none;html=1;entryX=0;entryY=0.5;entryDx=0;entryDy=0;" edge="1" parent="1" target="4AXN36IFr81p3jPmK6cU-18">
          <mxGeometry width="50" height="50" relative="1" as="geometry">
            <mxPoint x="450" y="160" as="sourcePoint" />
            <mxPoint x="430" y="270" as="targetPoint" />
          </mxGeometry>
        </mxCell>
        <mxCell id="4AXN36IFr81p3jPmK6cU-37" value="" style="endArrow=none;html=1;entryX=0;entryY=0.5;entryDx=0;entryDy=0;" edge="1" parent="1" target="4AXN36IFr81p3jPmK6cU-30">
          <mxGeometry width="50" height="50" relative="1" as="geometry">
            <mxPoint x="450" y="390" as="sourcePoint" />
            <mxPoint x="430" y="270" as="targetPoint" />
          </mxGeometry>
        </mxCell>
        <mxCell id="4AXN36IFr81p3jPmK6cU-38" value="" style="endArrow=none;html=1;entryX=0;entryY=0.5;entryDx=0;entryDy=0;" edge="1" parent="1" target="4AXN36IFr81p3jPmK6cU-25">
          <mxGeometry width="50" height="50" relative="1" as="geometry">
            <mxPoint x="450" y="400" as="sourcePoint" />
            <mxPoint x="430" y="270" as="targetPoint" />
          </mxGeometry>
        </mxCell>
        <mxCell id="4AXN36IFr81p3jPmK6cU-39" value="" style="endArrow=none;html=1;entryX=0;entryY=0.5;entryDx=0;entryDy=0;" edge="1" parent="1" target="4AXN36IFr81p3jPmK6cU-5">
          <mxGeometry width="50" height="50" relative="1" as="geometry">
            <mxPoint x="130" y="150" as="sourcePoint" />
            <mxPoint x="430" y="260" as="targetPoint" />
          </mxGeometry>
        </mxCell>
        <mxCell id="4AXN36IFr81p3jPmK6cU-40" value="" style="endArrow=none;html=1;entryX=0;entryY=0.5;entryDx=0;entryDy=0;" edge="1" parent="1" target="4AXN36IFr81p3jPmK6cU-6">
          <mxGeometry width="50" height="50" relative="1" as="geometry">
            <mxPoint x="130" y="160" as="sourcePoint" />
            <mxPoint x="430" y="260" as="targetPoint" />
          </mxGeometry>
        </mxCell>
        <mxCell id="4AXN36IFr81p3jPmK6cU-41" value="" style="endArrow=none;html=1;entryX=0;entryY=0.5;entryDx=0;entryDy=0;" edge="1" parent="1" target="4AXN36IFr81p3jPmK6cU-9">
          <mxGeometry width="50" height="50" relative="1" as="geometry">
            <mxPoint x="120" y="390" as="sourcePoint" />
            <mxPoint x="430" y="260" as="targetPoint" />
          </mxGeometry>
        </mxCell>
        <mxCell id="4AXN36IFr81p3jPmK6cU-43" value="目的基层党组织" style="shape=umlActor;verticalLabelPosition=bottom;verticalAlign=top;html=1;outlineConnect=0;" vertex="1" parent="1">
          <mxGeometry x="697" y="205" width="30" height="60" as="geometry" />
        </mxCell>
        <mxCell id="4AXN36IFr81p3jPmK6cU-46" value="线下转接" style="ellipse;whiteSpace=wrap;html=1;" vertex="1" parent="1">
          <mxGeometry x="800" y="105" width="100" height="50" as="geometry" />
        </mxCell>
        <mxCell id="4AXN36IFr81p3jPmK6cU-47" value="接收纸质介绍信" style="rounded=0;whiteSpace=wrap;html=1;" vertex="1" parent="1">
          <mxGeometry x="800" y="215" width="100" height="40" as="geometry" />
        </mxCell>
        <mxCell id="4AXN36IFr81p3jPmK6cU-48" value="" style="ellipse;html=1;shape=endState;fillColor=#000000;strokeColor=#ff0000;" vertex="1" parent="1">
          <mxGeometry x="835" y="315" width="30" height="30" as="geometry" />
        </mxCell>
        <mxCell id="4AXN36IFr81p3jPmK6cU-49" value="" style="ellipse;html=1;shape=startState;fillColor=#000000;strokeColor=#ff0000;" vertex="1" parent="1">
          <mxGeometry x="835" y="30" width="30" height="30" as="geometry" />
        </mxCell>
        <mxCell id="4AXN36IFr81p3jPmK6cU-50" value="" style="edgeStyle=orthogonalEdgeStyle;html=1;verticalAlign=bottom;endArrow=open;endSize=8;strokeColor=#ff0000;entryX=0.5;entryY=0;entryDx=0;entryDy=0;" edge="1" parent="1" source="4AXN36IFr81p3jPmK6cU-49">
          <mxGeometry relative="1" as="geometry">
            <mxPoint x="850" y="100" as="targetPoint" />
          </mxGeometry>
        </mxCell>
        <mxCell id="4AXN36IFr81p3jPmK6cU-53" value="" style="endArrow=classic;html=1;exitX=0.5;exitY=1;exitDx=0;exitDy=0;" edge="1" parent="1" source="4AXN36IFr81p3jPmK6cU-46" target="4AXN36IFr81p3jPmK6cU-47">
          <mxGeometry width="50" height="50" relative="1" as="geometry">
            <mxPoint x="980" y="105" as="sourcePoint" />
            <mxPoint x="1030" y="55" as="targetPoint" />
          </mxGeometry>
        </mxCell>
        <mxCell id="4AXN36IFr81p3jPmK6cU-54" value="" style="endArrow=classic;html=1;exitX=0.5;exitY=1;exitDx=0;exitDy=0;entryX=0.5;entryY=0;entryDx=0;entryDy=0;" edge="1" parent="1" source="4AXN36IFr81p3jPmK6cU-47" target="4AXN36IFr81p3jPmK6cU-48">
          <mxGeometry width="50" height="50" relative="1" as="geometry">
            <mxPoint x="980" y="165" as="sourcePoint" />
            <mxPoint x="1030" y="115" as="targetPoint" />
          </mxGeometry>
        </mxCell>
        <mxCell id="4AXN36IFr81p3jPmK6cU-57" value="" style="endArrow=none;html=1;entryX=0;entryY=0.5;entryDx=0;entryDy=0;" edge="1" parent="1" target="4AXN36IFr81p3jPmK6cU-47" source="4AXN36IFr81p3jPmK6cU-43">
          <mxGeometry width="50" height="50" relative="1" as="geometry">
            <mxPoint x="730" y="185" as="sourcePoint" />
            <mxPoint x="1030" y="105" as="targetPoint" />
          </mxGeometry>
        </mxCell>
        <mxCell id="4AXN36IFr81p3jPmK6cU-62" value="省内转接流程" style="text;html=1;strokeColor=none;fillColor=none;align=center;verticalAlign=middle;whiteSpace=wrap;rounded=0;" vertex="1" parent="1">
          <mxGeometry x="90" y="30" width="90" height="20" as="geometry" />
        </mxCell>
        <mxCell id="4AXN36IFr81p3jPmK6cU-63" value="转往省外流程" style="text;html=1;strokeColor=none;fillColor=none;align=center;verticalAlign=middle;whiteSpace=wrap;rounded=0;" vertex="1" parent="1">
          <mxGeometry x="400" y="30" width="90" height="20" as="geometry" />
        </mxCell>
        <mxCell id="4AXN36IFr81p3jPmK6cU-64" value="接收省外流程" style="text;html=1;strokeColor=none;fillColor=none;align=center;verticalAlign=middle;whiteSpace=wrap;rounded=0;" vertex="1" parent="1">
          <mxGeometry x="690" y="30" width="90" height="20" as="geometry" />
        </mxCell>
        <mxCell id="4AXN36IFr81p3jPmK6cU-68" value="线上操作" style="rounded=0;whiteSpace=wrap;html=1;" vertex="1" parent="1">
          <mxGeometry x="727" y="420" width="100" height="40" as="geometry" />
        </mxCell>
        <mxCell id="4AXN36IFr81p3jPmK6cU-69" value="线下操作" style="ellipse;whiteSpace=wrap;html=1;" vertex="1" parent="1">
          <mxGeometry x="727" y="480" width="100" height="50" as="geometry" />
        </mxCell>
      </root>
    </mxGraphModel>
  </diagram>
</mxfile>
